<?xml version="1.0" encoding="UTF-8"?>
<svg width="58px" height="15px" viewBox="0 0 58 15" version="1.1" xmlns="http://www.w3.org/2000/svg" xmlns:xlink="http://www.w3.org/1999/xlink">
    <!-- Generator: Sketch 50.2 (55047) - http://www.bohemiancoding.com/sketch -->
    <title>eye heart robot</title>
    <desc>Created with Sketch.</desc>
    <defs></defs>
    <g id="eye-heart-robot" stroke="none" stroke-width="1" fill="none" fill-rule="evenodd">
        <g id="botface" transform="translate(43.000000, 0.000000)" fill="#fefefe" fill-rule="nonzero">
            <path d="M2,1 C1.44771525,1 1,1.44771525 1,2 L1,12 C1,12.5522847 1.44771525,13 2,13 L13,13 C13.5522847,13 14,12.5522847 14,12 L14,2 C14,1.44771525 13.5522847,1 13,1 L2,1 Z M2,0 L13,0 C14.1045695,0 15,0.8954305 15,2 L15,12 C15,13.1045695 14.1045695,14 13,14 L2,14 C0.8954305,14 0,13.1045695 0,12 L0,2 C0,0.8954305 0.8954305,0 2,0 Z" id="face"></path>
            <path d="M3.5,6.5 C2.3954305,6.5 1.5,5.6045695 1.5,4.5 C1.5,3.3954305 2.3954305,2.5 3.5,2.5 C4.6045695,2.5 5.5,3.3954305 5.5,4.5 C5.5,5.6045695 4.6045695,6.5 3.5,6.5 Z M3.5,5.5 C4.05228475,5.5 4.5,5.05228475 4.5,4.5 C4.5,3.94771525 4.05228475,3.5 3.5,3.5 C2.94771525,3.5 2.5,3.94771525 2.5,4.5 C2.5,5.05228475 2.94771525,5.5 3.5,5.5 Z" id="left-eye"></path>
            <path d="M11.5,6.5 C10.3954305,6.5 9.5,5.6045695 9.5,4.5 C9.5,3.3954305 10.3954305,2.5 11.5,2.5 C12.6045695,2.5 13.5,3.3954305 13.5,4.5 C13.5,5.6045695 12.6045695,6.5 11.5,6.5 Z M11.5,5.5 C12.0522847,5.5 12.5,5.05228475 12.5,4.5 C12.5,3.94771525 12.0522847,3.5 11.5,3.5 C10.9477153,3.5 10.5,3.94771525 10.5,4.5 C10.5,5.05228475 10.9477153,5.5 11.5,5.5 Z" id="right-eye"></path>
            <path d="M3,9 L3,11 L12,11 L12,9 L3,9 Z M2,8 L13,8 L13,12 L2,12 L2,8 Z" id="mouth"></path>
        </g>
        <g id="heart" transform="translate(23.000000, 0.000000)" stroke="#fefefe">
            <path d="M7.99999998,14 C7.99999998,14 16,10.418278 16,6.00000002 C16.0015824,-0.694469974 10.4832478,-0.717816991 7.99999998,3.05286685 C5.77277619,-0.790108356 6.49639071e-14,-0.794890275 0,6.00000002 C0,10.418278 7.99999998,14 7.99999998,14 Z" id="heart-shape"></path>
        </g>
        <g id="eye" transform="translate(1.000000, 1.000000)" stroke="#fefefe">
            <path d="M9.5,13 C14.7467051,13 19,6.5 19,6.5 C19,6.5 14.7467051,0 9.5,0 C4.25329488,0 0,6.5 0,6.5 C0,6.5 4.25329488,13 9.5,13 Z" id="eye-outline"></path>
            <circle id="pupil-shape" cx="9.5" cy="6.5" r="2.5"></circle>
        </g>
    </g>
</svg>
